# xmcd
#
# Track frame offsets: 
#        150
#        19479
#        33097
#        48102
#        72823
#        90536
#        105106
#        122708
#        140629
#
# Disc length: 2091 seconds
#
# Revision: 0
# Processed by: cddbd v1.5.1PL0 Copyright (c) Steve Scherf et al.
# Submitted via: ExactAudioCopy v0.95a5
#
DISCID=6b082909
DTITLE=Dr. String - 100% for you
DYEAR=1995
DGENRE=Country
TTITLE0=Tequila memories
TTITLE1=It could be so nice
TTITLE2=Rain
TTITLE3=Banned Love
TTITLE4=Break ist up
TTITLE5=The half man I am
TTITLE6=Real Love
TTITLE7=Come Home
TTITLE8=Sweet Home
EXTD=
EXTT0=
EXTT1=
EXTT2=
EXTT3=
EXTT4=
EXTT5=
EXTT6=
EXTT7=
EXTT8=
PLAYORDER=
